<svg width="39" height="38" xmlns="http://www.w3.org/2000/svg" xmlns:xlink="http://www.w3.org/1999/xlink" overflow="hidden"><defs><clipPath id="clip0"><rect x="18" y="114" width="39" height="38"/></clipPath></defs><g clip-path="url(#clip0)" transform="translate(-18 -114)"><path d="M30.535 15.1466 31.2708 14.558 31.2396 14.3347C30.8889 11.968 28.9833 9.31356 25.019 8.41106 24.8051 8.36602 24.5952 8.50294 24.5502 8.71688 24.5445 8.74388 24.5416 8.77139 24.5417 8.79898L24.5417 9.58788C24.5449 9.76584 24.6698 9.91832 24.8437 9.9564 26.7251 10.4207 28.023 12.4264 28.1485 14.9182L28.8665 26.9768C28.8991 27.5244 28.4816 27.9946 27.9341 28.0272 27.9304 28.0274 27.9266 28.0276 27.9229 28.0278L27.8801 28.0278C27.3122 27.9992 26.8697 27.5248 26.8806 26.9562L26.8806 20.425C26.8806 18.6761 25.4629 17.2583 23.714 17.2583L22.9583 17.2583 22.9583 7.91667C22.9583 6.60499 21.895 5.54167 20.5833 5.54167L11.0833 5.54167C9.77166 5.54167 8.70833 6.60499 8.70833 7.91667L8.70833 30.0833 7.125 30.0833 7.125 32.4583 24.5417 32.4583 24.5417 30.0833 22.9583 30.0833 22.9583 19.6333 23.714 19.6333C24.1512 19.6333 24.5056 19.9878 24.5056 20.425L24.5056 26.9095C24.4864 28.0759 25.0528 29.1744 26.0142 29.8351 27.5603 30.866 29.6492 30.4483 30.6801 28.9022 31.0867 28.2922 31.2831 27.5661 31.2392 26.8343ZM11.0833 7.91667 20.5833 7.91667 20.5833 15.0417 11.0833 15.0417Z" transform="matrix(1.02632 0 0 1 18 114)"/></g></svg>