<svg width="39" height="38" xmlns="http://www.w3.org/2000/svg" xmlns:xlink="http://www.w3.org/1999/xlink" overflow="hidden"><defs><clipPath id="clip0"><rect x="18" y="303" width="39" height="38"/></clipPath></defs><g clip-path="url(#clip0)" transform="translate(-18 -303)"><path d="M19 3.95833C10.6875 3.95833 3.95833 10.6875 3.95833 19 3.95833 27.3125 10.6875 34.0417 19 34.0417 27.3125 34.0417 34.0417 27.3125 34.0417 19 34.0417 10.6875 27.3125 3.95833 19 3.95833ZM10.2917 16.625C10.2917 15.3188 11.3604 14.25 12.6667 14.25 13.9729 14.25 15.0417 15.3188 15.0417 16.625 15.0417 17.9312 13.9729 19 12.6667 19 11.3604 19 10.2917 17.9312 10.2917 16.625ZM26.8375 25.4125C25.0167 27.7875 22.2062 29.2917 19 29.2917 15.7938 29.2917 12.9833 27.7875 11.1625 25.4125 11.0833 25.2938 11.0042 25.1354 11.0042 24.9375 11.0042 24.5021 11.3604 24.1458 11.7958 24.1458 12.0729 24.1458 12.3104 24.2646 12.4292 24.4625 13.9333 26.4417 16.3083 27.6688 19 27.6688 21.6917 27.6688 24.0271 26.4417 25.5708 24.4625 25.7292 24.2646 25.9667 24.1458 26.2042 24.1458 26.6396 24.1458 26.9958 24.5021 26.9958 24.9375 26.9958 25.1354 26.9167 25.2938 26.8375 25.4125ZM25.3333 19C24.0271 19 22.9583 17.9312 22.9583 16.625 22.9583 15.3188 24.0271 14.25 25.3333 14.25 26.6396 14.25 27.7083 15.3188 27.7083 16.625 27.7083 17.9312 26.6396 19 25.3333 19Z" transform="matrix(1.02632 0 0 1 18 303)"/></g></svg>