<svg width="39" height="38" xmlns="http://www.w3.org/2000/svg" xmlns:xlink="http://www.w3.org/1999/xlink" overflow="hidden"><defs><clipPath id="clip0"><rect x="18" y="162" width="39" height="38"/></clipPath></defs><g clip-path="url(#clip0)" transform="translate(-18 -162)"><path d="M8.57098 6.94292 9.5855 12.2055 9.99717 12.4589 10.661 12.0504 11.2836 11.6672 11.9059 12.0504 12.5701 12.4589 13.2339 12.0504 13.8565 11.6672 14.4788 12.0504 15.143 12.4589 15.8068 12.0504 16.247 11.7796 15.0729 5.68931 8.57098 6.94292Z" transform="matrix(1.02632 0 0 1 18 162)"/><path d="M22.1872 7.79404 21.4592 6.90151C21.1994 6.62728 20.7898 6.55726 20.4535 6.72956 20.4307 6.74112 20.4085 6.75383 20.387 6.76768L19.3456 7.4387C19.028 7.63266 18.6287 7.63266 18.3111 7.4387L17.2697 6.76768C17.0307 6.62233 16.7372 6.59819 16.4777 6.70249L17.5701 12.3692 17.7158 12.4589 18.3799 12.0502 19.0023 11.6672 19.6247 12.0502 20.2888 12.4589 20.9528 12.0502 21.5752 11.6672 21.7967 11.8035 23.4778 7.95221 23.171 8.04626C22.8219 8.16098 22.438 8.06257 22.1872 7.79404Z" transform="matrix(1.02632 0 0 1 18 162)"/><path d="M24.1477 9.45266C23.8137 10.2629 23.4673 11.1144 23.1004 11.9877 23.0383 12.1355 22.9768 12.2807 22.9151 12.4259L23.5257 12.0502 24.1481 11.6672 24.7705 12.0502 25.4346 12.4589 26.0986 12.0502 26.721 11.6672 27.3434 12.0502 27.9205 12.4053C29.9875 7.58828 31.6677 3.91185 29.3913 2.95416 27.6374 2.21516 26.3739 4.28604 24.9743 7.49229 25.6762 6.87618 26.4153 6.30376 27.1873 5.7783 27.3784 5.64961 27.6377 5.70028 27.7664 5.89139 27.8944 6.08154 27.845 6.33939 27.6558 6.46879 26.382 7.33364 25.2057 8.33411 24.1477 9.45266Z" transform="matrix(1.02632 0 0 1 18 162)"/><path d="M6.95808 30.221C5.89827 31.3907 6.80513 37.3815 10.1376 35.7307 13.4591 37.3924 14.355 31.4016 13.2952 30.2318 12.3118 29.1605 11.252 29.8929 10.4435 30.0788 10.4186 29.8289 10.3636 29.583 10.2796 29.3464 10.7229 29.3219 11.1439 29.1441 11.4705 28.8435 11.826 28.4149 12.0091 27.8692 11.9841 27.313 11.4278 27.2867 10.882 27.47 10.4544 27.8268 10.2171 28.0829 10.0578 28.4015 9.99554 28.7451 9.68576 28.2376 9.26796 27.8046 8.77183 27.477L8.43311 28.0345C9.1413 28.501 9.63011 29.2347 9.78793 30.0679 8.99032 29.8711 7.9196 29.1605 6.95808 30.221Z" transform="matrix(1.02632 0 0 1 18 162)"/><path d="M15.1429 13.8532 13.8565 13.0616 12.57 13.8532 11.2835 13.0616 9.99709 13.8532 8.71063 13.0616 8.71063 25.9461 9.46259 26.5106C9.59191 26.5975 9.71688 26.6897 9.83745 26.7872 10.4392 26.3465 11.1681 26.1137 11.9139 26.1241L11.9139 26.1241C12.0013 26.1241 12.0507 26.1274 12.0507 26.1274L13.1102 26.1979 13.1697 27.2457C13.1862 27.7111 13.1176 28.1756 12.9671 28.6163 13.4324 28.7826 13.8481 29.0641 14.1752 29.4346 15.197 30.5623 15.0637 33.1684 14.2982 34.895 14.246 35.0127 14.1866 35.1189 14.1292 35.2282L27.7106 35.2282C28.5851 35.2282 29.2939 34.5194 29.294 33.645 29.294 33.6449 29.294 33.6449 29.294 33.6449L29.294 13.0616 28.0075 13.8532 26.721 13.0616 25.4346 13.8532 24.1481 13.0616 22.8617 13.8532 21.5752 13.0616 20.2888 13.8532 19.0023 13.0616 17.7158 13.8532 16.4294 13.0616Z" transform="matrix(1.02632 0 0 1 18 162)"/></g></svg>