<svg width="38" height="38" xmlns="http://www.w3.org/2000/svg" xmlns:xlink="http://www.w3.org/1999/xlink" overflow="hidden"><defs><clipPath id="clip0"><rect x="17" y="216" width="38" height="38"/></clipPath></defs><g clip-path="url(#clip0)" transform="translate(-17 -216)"><path d="M36.9104 240.621 23.9271 240.621C23.175 240.621 22.5417 241.254 22.5417 242.006 22.5417 242.758 23.175 243.392 23.9271 243.392L30.3396 243.392 32.3187 245.252 34.3375 243.392 36.9104 243.392C37.6625 243.392 38.2958 242.758 38.2958 242.006 38.2958 241.254 37.6625 240.621 36.9104 240.621Z"/><path d="M32.2396 247.39 29.5083 244.856 22.4625 244.856 22.4625 246.717C22.4625 247.746 23.2938 248.577 24.3229 248.577L36.3958 248.577C37.425 248.577 38.2562 247.746 38.2562 246.717L38.2562 244.856 35.0104 244.856 32.2396 247.39Z"/><path d="M30.3396 233.021C25.9854 233.021 22.4625 234.683 22.4625 239.038L38.2167 239.038C38.2167 234.723 34.6937 233.021 30.3396 233.021Z"/><path d="M49.3 222.808C49.6167 222.492 49.6167 222.017 49.3 221.7 48.9833 221.383 48.5083 221.383 48.1917 221.7L44.2333 225.777 44.075 227.242 33.15 227.242 33.15 228.429 33.4271 231.794C37.5042 232.625 39.8396 235.238 39.8396 239.117L39.8396 246.756C39.8396 247.429 39.6417 248.062 39.2854 248.617L45.8563 248.617 47.4396 228.429 47.4396 227.242 45.7771 227.242 45.8563 226.45 49.3 222.808Z"/></g></svg>