<svg width="38" height="39" xmlns="http://www.w3.org/2000/svg" xmlns:xlink="http://www.w3.org/1999/xlink" overflow="hidden"><defs><clipPath id="clip0"><rect x="17" y="347" width="38" height="39"/></clipPath></defs><g clip-path="url(#clip0)" transform="translate(-17 -347)"><path d="M32.4583 26.125 32.4583 22.5625 20.9792 14.4479 20.9792 6.72917C20.9792 5.18542 20.1875 3.16667 19 3.16667 17.8521 3.16667 17.0208 5.18542 17.0208 6.72917L17.0208 14.4479 5.54167 22.5625 5.54167 26.125 17.0208 20.3854 17.0208 29.0146 13.0625 32.4583 13.0625 34.8333 19 32.4583 24.9375 34.8333 24.9375 32.4583 20.9792 29.0146 20.9792 20.3854 32.4583 26.125Z" transform="matrix(1 0 0 1.02632 17 347)"/></g></svg>